<?xml version="1.0" encoding="utf-8"?>
<!-- Generator: Adobe Illustrator 18.0.0, SVG Export Plug-In . SVG Version: 6.00 Build 0)  -->
<!DOCTYPE svg PUBLIC "-//W3C//DTD SVG 1.1//EN" "http://www.w3.org/Graphics/SVG/1.1/DTD/svg11.dtd">
<svg version="1.1" id="Layer_1" xmlns="http://www.w3.org/2000/svg" xmlns:xlink="http://www.w3.org/1999/xlink" x="0px" y="0px"
	 viewBox="0 0 196.5 196.5" enable-background="new 0 0 196.5 196.5" xml:space="preserve">
<circle fill="#565656" cx="98.3" cy="98.3" r="98.3"/>
<circle cx="98.3" cy="98.3" r="95.9"/>
<circle fill="#43857C" cx="98.3" cy="98.3" r="27.2"/>
<g>
	<path fill="#FFFFFF" d="M27.7,110.4c0.7,0,1.7-0.2,2.8-0.2c0.9,0,1.4,0.3,1.4,0.7c0,0.9-2.1,0.9-6.8,2.4c-5.8,1.8-8.8,3.4-9.4,3.4
		c-0.7,0-1.2-0.8-1.2-2.7c0-6.2,0.8-9.9,6.5-14.3c4.6-3.6,10.5-7,17.5-9.9c7.1-3,11.7-4.3,13.3-4.3c2.9,0,5.6,4.2,5.6,7
		c0,1.7-3.6,6.3-9.5,16.1c-7.9,13.2-12.1,21.5-12.1,25.6c0,1.9,0.7,3.2,2.2,4.5c4.6-3.4,12.2-13.7,22.9-30.9c-0.1-0.6-0.2-1-0.2-1.2
		c0-2.1,1.2-4.7,3.6-8.2c2.3-3.5,4.2-5.2,5.8-5.2c1.1,0,1.9,1,1.9,2.7c0,4.4-5.6,13.3-15.7,28.7c-10.2,15.5-17.9,23-19.9,23
		c-0.7,0-2.8-1.1-4.7-3.1c-2.5-2.6-3.5-5.1-3.5-8.9c0-8.4,6.7-20.2,18.1-38c-10,4.3-17.7,9-22.7,13.4
		C26,110.5,27.3,110.4,27.7,110.4z"/>
	<path fill="#FFFFFF" d="M86.7,131.1c-7.1,8.8-12.4,13.4-17.3,13.4c-4.5,0-7.3-3.9-7.3-10.9c0-6.2,2.5-10.9,8.1-16.5
		c2.6-2.6,4.6-4,7.4-4c1.8,0,2.7,0.7,2.7,2.3c0,2.8-3.4,8-10.9,14.4c-0.2,1-0.4,1.9-0.4,2.7c0,2.4,1.7,4,4,4c2.4,0,7.2-2.9,13.6-9.1
		L86.7,131.1z M85.3,100.9c1.7,0,2.6,0.9,2.6,2.7c0,2.9-3.5,7.5-6.5,7.5c-1.7,0-2.8-1.2-2.8-2.8C78.5,104.7,82.1,100.9,85.3,100.9z"
		/>
	<path fill="#FFFFFF" d="M95,116.5c2.2,0,4.1,0.9,4.1,1.8c0,1.1-2.4,4.3-7.1,9.6c-1.4,1.6-2.2,3.4-2.2,4.9c0,0.1,0,0.2,0,0.2
		c11.9-13.6,20.8-19.4,23.2-19.4c1.2,0,2.7,2.7,2.7,5.1c0,3-2.5,4.3-4.8,7.4c-3.1,4.1-4.4,7.5-4.4,8.5c0,1.1,0.6,1.7,1.7,1.7
		c1.5,0,5.4-3.1,11.9-9.1l0.1,3.7c-8.4,9.1-13.3,14.5-17.7,14.5c-2.6,0-4.4-2.2-4.4-5.6c0-3.4,2.5-8.3,7.3-14.9
		c-11.4,10.5-15.1,18.6-17.7,18.6c-2.5,0-4.4-4.1-4.4-10.6c0-0.4,0-1.2,0.1-2.2C87.4,121.2,91.5,116.5,95,116.5z"/>
	<path fill="#FFFFFF" d="M121.7,144.4c-1.9,0-5.4-5.5-5.4-10.6c0-3.8,1.9-7.8,5.6-12c4.6-5.3,9.5-8.3,10.1-8.3
		c1.6,0,3.8,2.3,3.8,3.4c0,1.7-3.4,6.4-10.9,12.5c-1.9,2.2-3,3.8-3,5.6c0,0.6,0,0.9,0.3,0.9c1,0,11-5.7,25.4-20.6
		c1.8,0.3,2.6,1.5,2.6,3.8c0,3.9-6.5,10.6-15.5,26c7-5.3,13.3-11.3,19.2-17.9v3.7c-20.4,22.5-29.1,34.6-30.3,34.6
		c-0.7,0-2.2-3.4-2.2-6.1c0-1.7,4.1-10.8,14.2-25.3C128.4,141.4,123.1,144.4,121.7,144.4z"/>
	<path fill="#FFFFFF" d="M176.4,131c-8.5,9-13.1,14.3-17.6,14.3c-4.6,0-8-5.6-8-12.3c0-6.5,4.8-18.9,14.7-30.8
		c6.4-7.7,11.6-11.5,13.7-11.5c1,0,1.7,1,1.7,2.9c0,10.8-7.3,23.6-21.9,34.6c0,0.3,0,0.9,0,1.7c0,5.1,1.4,7.6,4.1,7.6
		c2.3,0,6.4-3.6,13.3-10L176.4,131z M175.7,97.8c-7.2,7.8-12.3,15.8-15.1,24C167.9,115.9,172.7,108,175.7,97.8z"/>
</g>
<circle cx="98.3" cy="98.3" r="3.1"/>
</svg>
